# xmcd
#
# Track frame offsets:
#	150
#	15090
#	29487
#	46755
#	62135
#	78920
#	96270
#	112040
#	132017
#	151120
#
# Disc length: 2306 seconds
#
# Revision: 2
# Processed by: cddbd v1.5.1PL0 Copyright (c) Steve Scherf et al.
# Submitted via: audiograbber 1.83.01
#
DISCID=6d09000a
DTITLE=Brad Cotter - Patient Man
DYEAR=2004
DGENRE=Country
TTITLE0=I Meant To
TTITLE1=Can't Tell Me Nothin'
TTITLE2=Patient Man
TTITLE3=I Miss Me
TTITLE4=High on Love
TTITLE5=Rock and Roll in the Hay
TTITLE6=Hard to be a Rock
TTITLE7=I Came Here to Live
TTITLE8=Blue Collar Night
TTITLE9=I've Got Time
EXTD=
EXTT0=
EXTT1=
EXTT2=
EXTT3=
EXTT4=
EXTT5=
EXTT6=
EXTT7=
EXTT8=
EXTT9=
PLAYORDER=
